<?xml version="1.0" encoding="UTF-8"?><svg xmlns="http://www.w3.org/2000/svg" xmlns:xlink="http://www.w3.org/1999/xlink" viewBox="0 0 330.07 330.04"><defs><style>.cls-1{isolation:isolate;}.cls-2{stroke-linecap:round;}.cls-2,.cls-3{fill:none;stroke:#9e4768;stroke-linejoin:round;stroke-width:10px;}.cls-4{fill:#d45f8c;}.cls-4,.cls-5,.cls-6{stroke-width:0px;}.cls-5{fill:#9e4768;}.cls-6{fill:url(#radial-gradient);mix-blend-mode:multiply;opacity:.12;}</style><radialGradient id="radial-gradient" cx="197.73" cy="183.7" fx="161.14" fy="134.73" r="357.63" gradientUnits="userSpaceOnUse"><stop offset="0" stop-color="#fff"/><stop offset="1" stop-color="#000"/></radialGradient></defs><g class="cls-1"><g id="Layer_2"><g id="Layer_3"><path class="cls-4" d="m164.84,325.04c-37.79,0-74.53-13.55-103.48-38.14-29.24-24.85-48.58-59.46-54.45-97.43-6.53-42.24,3.78-84.49,29.03-118.97S98.35,13.43,140.59,6.9c8.16-1.26,16.45-1.9,24.64-1.9,37.79,0,74.53,13.55,103.48,38.14,29.24,24.85,48.58,59.46,54.45,97.43,6.53,42.24-3.78,84.49-29.03,118.97s-62.41,57.07-104.65,63.6c-8.16,1.26-16.45,1.9-24.64,1.9Z"/><path class="cls-5" d="m165.23,10c75.16,0,141.15,54.76,152.99,131.34,13.08,84.6-44.9,163.78-129.5,176.86-8.02,1.24-16,1.84-23.87,1.84-75.16,0-141.15-54.76-152.99-131.34C-1.22,104.1,56.76,24.92,141.35,11.84c8.02-1.24,16-1.84,23.87-1.84m.01-10v10V0c-8.47,0-17.01.66-25.42,1.96C96.27,8.69,57.94,31.98,31.91,67.54,5.87,103.1-4.76,146.68,1.97,190.23c6.05,39.17,26,74.85,56.16,100.48,29.85,25.36,67.74,39.33,106.71,39.33,8.45,0,16.99-.66,25.4-1.96,43.56-6.73,81.88-30.03,107.92-65.59s36.67-79.13,29.93-122.69c-6.05-39.16-26-74.84-56.15-100.48C242.1,13.97,204.21,0,165.24,0h0Z"/><circle class="cls-6" cx="165.04" cy="165.02" r="155"/><path class="cls-5" d="m150.35,91.49c.75,0,1.48.52,1.61,1.37l19.93,142.66c.16,1.04-.66,1.87-1.6,1.87-.24,0-.48-.05-.72-.17l-51.85-27.17-39.45,4.21c-.08.01-.17.02-.25.02-.79,0-1.48-.57-1.6-1.37l-12.8-69.03c-.14-.88.47-1.71,1.35-1.85l38.88-7.9,45.36-42.16c.33-.32.73-.47,1.13-.47m0-10c-3,0-5.83,1.13-8,3.2l-43.24,40.19-35.99,7.32c-2.93.54-5.5,2.15-7.27,4.56-1.83,2.5-2.58,5.57-2.11,8.64.02.1.03.2.05.29l12.78,68.95c.97,5.6,5.75,9.64,11.45,9.64.48,0,.96-.03,1.44-.09l36.31-3.87,49.16,25.77c.06.03.12.06.18.09,1.61.8,3.4,1.22,5.19,1.22,3.39,0,6.61-1.48,8.83-4.07,2.18-2.55,3.15-5.9,2.67-9.23l-19.93-142.63s-.01-.1-.02-.14c-.88-5.71-5.72-9.85-11.49-9.85h0Z"/><path class="cls-2" d="m188.38,104.2s26.31,14.58,31.93,50.96c5.62,36.37-15.19,57.34-15.19,57.34"/><path class="cls-2" d="m215.71,68.65s41.18,22.82,49.98,79.75c8.8,56.92-23.77,89.74-23.77,89.74"/><line class="cls-3" x1="103.13" y1="129.41" x2="117.95" y2="214.79"/></g></g></g></svg>